<mxfile host="Electron" modified="2023-12-14T14:48:12.627Z" agent="Mozilla/5.0 (Windows NT 10.0; Win64; x64) AppleWebKit/537.36 (KHTML, like Gecko) draw.io/22.0.2 Chrome/114.0.5735.289 Electron/25.8.4 Safari/537.36" etag="yvrxlm25C0rbtyRLjhBA" version="22.0.2" type="device">
  <diagram name="PÃ¡gina-1" id="BWtdhxkFYSahO-Wof2os">
    <mxGraphModel dx="945" dy="553" grid="1" gridSize="10" guides="1" tooltips="1" connect="1" arrows="1" fold="1" page="1" pageScale="1" pageWidth="827" pageHeight="1169" math="0" shadow="0">
      <root>
        <mxCell id="0" />
        <mxCell id="1" parent="0" />
        <mxCell id="pIclwiFEjsyVDsLdSNmG-9" style="edgeStyle=orthogonalEdgeStyle;rounded=0;orthogonalLoop=1;jettySize=auto;html=1;exitX=0.5;exitY=0.5;exitDx=0;exitDy=0;exitPerimeter=0;entryX=0;entryY=0.5;entryDx=0;entryDy=0;" edge="1" parent="1" source="pIclwiFEjsyVDsLdSNmG-1" target="pIclwiFEjsyVDsLdSNmG-3">
          <mxGeometry relative="1" as="geometry" />
        </mxCell>
        <mxCell id="pIclwiFEjsyVDsLdSNmG-1" value="Cliente" style="shape=umlActor;verticalLabelPosition=bottom;verticalAlign=top;html=1;outlineConnect=0;" vertex="1" parent="1">
          <mxGeometry x="230" y="260" width="30" height="60" as="geometry" />
        </mxCell>
        <mxCell id="pIclwiFEjsyVDsLdSNmG-2" value="Agente de viajes" style="shape=umlActor;verticalLabelPosition=bottom;verticalAlign=top;html=1;outlineConnect=0;" vertex="1" parent="1">
          <mxGeometry x="100" y="260" width="30" height="60" as="geometry" />
        </mxCell>
        <mxCell id="pIclwiFEjsyVDsLdSNmG-3" value="Registro" style="ellipse;whiteSpace=wrap;html=1;" vertex="1" parent="1">
          <mxGeometry x="330" y="275" width="120" height="30" as="geometry" />
        </mxCell>
        <mxCell id="pIclwiFEjsyVDsLdSNmG-16" style="edgeStyle=none;shape=connector;rounded=0;orthogonalLoop=1;jettySize=auto;html=1;exitX=0;exitY=0.5;exitDx=0;exitDy=0;entryX=1;entryY=0.5;entryDx=0;entryDy=0;dashed=1;labelBackgroundColor=default;strokeColor=default;align=center;verticalAlign=middle;fontFamily=Helvetica;fontSize=11;fontColor=default;endArrow=classic;" edge="1" parent="1" source="pIclwiFEjsyVDsLdSNmG-4" target="pIclwiFEjsyVDsLdSNmG-3">
          <mxGeometry relative="1" as="geometry" />
        </mxCell>
        <mxCell id="pIclwiFEjsyVDsLdSNmG-17" value="&amp;lt;&amp;lt;include&amp;gt;&amp;gt;" style="edgeLabel;html=1;align=center;verticalAlign=middle;resizable=0;points=[];fontSize=11;fontFamily=Helvetica;fontColor=default;" vertex="1" connectable="0" parent="pIclwiFEjsyVDsLdSNmG-16">
          <mxGeometry x="-0.0164" y="-1" relative="1" as="geometry">
            <mxPoint as="offset" />
          </mxGeometry>
        </mxCell>
        <mxCell id="pIclwiFEjsyVDsLdSNmG-4" value="Reservar" style="ellipse;whiteSpace=wrap;html=1;" vertex="1" parent="1">
          <mxGeometry x="540" y="200" width="120" height="30" as="geometry" />
        </mxCell>
        <mxCell id="pIclwiFEjsyVDsLdSNmG-8" style="edgeStyle=orthogonalEdgeStyle;rounded=0;orthogonalLoop=1;jettySize=auto;html=1;exitX=0.5;exitY=0.5;exitDx=0;exitDy=0;exitPerimeter=0;entryX=0.5;entryY=0.5;entryDx=0;entryDy=0;entryPerimeter=0;shape=flexArrow;fillColor=default;width=2.5;endSize=4.441666666666667;" edge="1" parent="1" source="pIclwiFEjsyVDsLdSNmG-1" target="pIclwiFEjsyVDsLdSNmG-2">
          <mxGeometry relative="1" as="geometry">
            <Array as="points">
              <mxPoint x="190" y="290" />
              <mxPoint x="190" y="290" />
            </Array>
          </mxGeometry>
        </mxCell>
        <mxCell id="pIclwiFEjsyVDsLdSNmG-15" style="edgeStyle=none;shape=connector;rounded=0;orthogonalLoop=1;jettySize=auto;html=1;exitX=0;exitY=0.5;exitDx=0;exitDy=0;entryX=1;entryY=0.5;entryDx=0;entryDy=0;dashed=1;labelBackgroundColor=default;strokeColor=default;align=center;verticalAlign=middle;fontFamily=Helvetica;fontSize=11;fontColor=default;endArrow=classic;" edge="1" parent="1" source="pIclwiFEjsyVDsLdSNmG-10" target="pIclwiFEjsyVDsLdSNmG-3">
          <mxGeometry relative="1" as="geometry" />
        </mxCell>
        <mxCell id="pIclwiFEjsyVDsLdSNmG-18" value="&amp;lt;&amp;lt;include&amp;gt;&amp;gt;" style="edgeLabel;html=1;align=center;verticalAlign=middle;resizable=0;points=[];fontSize=11;fontFamily=Helvetica;fontColor=default;" vertex="1" connectable="0" parent="pIclwiFEjsyVDsLdSNmG-15">
          <mxGeometry x="0.3333" y="2" relative="1" as="geometry">
            <mxPoint x="20" y="-2" as="offset" />
          </mxGeometry>
        </mxCell>
        <mxCell id="pIclwiFEjsyVDsLdSNmG-10" value="cancelar" style="ellipse;whiteSpace=wrap;html=1;" vertex="1" parent="1">
          <mxGeometry x="540" y="275" width="120" height="30" as="geometry" />
        </mxCell>
        <mxCell id="pIclwiFEjsyVDsLdSNmG-13" style="rounded=0;orthogonalLoop=1;jettySize=auto;html=1;exitX=0;exitY=0.5;exitDx=0;exitDy=0;entryX=1;entryY=0.5;entryDx=0;entryDy=0;dashed=1;" edge="1" parent="1" source="pIclwiFEjsyVDsLdSNmG-11" target="pIclwiFEjsyVDsLdSNmG-3">
          <mxGeometry relative="1" as="geometry" />
        </mxCell>
        <mxCell id="pIclwiFEjsyVDsLdSNmG-19" value="&amp;lt;&amp;lt;include&amp;gt;&amp;gt;" style="edgeLabel;html=1;align=center;verticalAlign=middle;resizable=0;points=[];fontSize=11;fontFamily=Helvetica;fontColor=default;" vertex="1" connectable="0" parent="pIclwiFEjsyVDsLdSNmG-13">
          <mxGeometry x="0.3131" y="4" relative="1" as="geometry">
            <mxPoint x="22" y="11" as="offset" />
          </mxGeometry>
        </mxCell>
        <mxCell id="pIclwiFEjsyVDsLdSNmG-11" value="verificar estado del vuelo" style="ellipse;whiteSpace=wrap;html=1;" vertex="1" parent="1">
          <mxGeometry x="540" y="350" width="120" height="35" as="geometry" />
        </mxCell>
        <mxCell id="pIclwiFEjsyVDsLdSNmG-21" style="edgeStyle=none;shape=connector;rounded=0;orthogonalLoop=1;jettySize=auto;html=1;exitX=0.5;exitY=0;exitDx=0;exitDy=0;entryX=0.5;entryY=1;entryDx=0;entryDy=0;dashed=1;labelBackgroundColor=default;strokeColor=default;align=center;verticalAlign=middle;fontFamily=Helvetica;fontSize=11;fontColor=default;endArrow=classic;" edge="1" parent="1" source="pIclwiFEjsyVDsLdSNmG-12" target="pIclwiFEjsyVDsLdSNmG-11">
          <mxGeometry relative="1" as="geometry" />
        </mxCell>
        <mxCell id="pIclwiFEjsyVDsLdSNmG-22" value="&amp;lt;&amp;lt;exlude&amp;gt;&amp;gt;" style="edgeLabel;html=1;align=center;verticalAlign=middle;resizable=0;points=[];fontSize=11;fontFamily=Helvetica;fontColor=default;" vertex="1" connectable="0" parent="pIclwiFEjsyVDsLdSNmG-21">
          <mxGeometry x="0.0564" y="1" relative="1" as="geometry">
            <mxPoint as="offset" />
          </mxGeometry>
        </mxCell>
        <mxCell id="pIclwiFEjsyVDsLdSNmG-12" value="seleccionar otro vuelo" style="ellipse;whiteSpace=wrap;html=1;" vertex="1" parent="1">
          <mxGeometry x="540" y="450" width="120" height="35" as="geometry" />
        </mxCell>
      </root>
    </mxGraphModel>
  </diagram>
</mxfile>
